<?xml version="1.0" encoding="UTF-8" standalone="no"?>
<!DOCTYPE svg PUBLIC "-//W3C//DTD SVG 1.1//EN" "http://www.w3.org/Graphics/SVG/1.1/DTD/svg11.dtd">
<svg width="100%" height="100%" viewBox="0 0 48 48" version="1.1" xmlns="http://www.w3.org/2000/svg" xmlns:xlink="http://www.w3.org/1999/xlink" xml:space="preserve" xmlns:serif="http://www.serif.com/" style="fill-rule:evenodd;clip-rule:evenodd;stroke-linejoin:round;stroke-miterlimit:2;">
  <style>
    .bg-path {
      fill: #036;
      transition: fill 0.3s ease;
    }
    .dot-path {
      fill: #fbb142;
      transition: fill 0.3s ease;
    }
    @media (prefers-color-scheme: dark) {
      .bg-path {
        fill: #0093d9;
      }
      .dot-path {
        fill: #fbdb3b;
      }
    }
  </style>
  <g transform="matrix(51.930067,0,0,51.930067,-1.895447,42.233415)">
    <path class="bg-path" d="M0.397,0.011c-0.05,0 -0.097,-0.009 -0.14,-0.028c-0.044,-0.019 -0.082,-0.044 -0.115,-0.077c-0.033,-0.033 -0.058,-0.072 -0.077,-0.116c-0.019,-0.044 -0.028,-0.091 -0.028,-0.142c0,-0.051 0.009,-0.098 0.028,-0.142c0.019,-0.044 0.045,-0.082 0.078,-0.115c0.033,-0.033 0.072,-0.059 0.117,-0.077c0.045,-0.018 0.093,-0.028 0.145,-0.027c0.058,-0 0.111,0.011 0.16,0.032c0.049,0.022 0.089,0.052 0.121,0.091l-0.092,0.092c-0.022,-0.029 -0.049,-0.051 -0.082,-0.067c-0.033,-0.015 -0.069,-0.023 -0.108,-0.023c-0.045,0 -0.084,0.01 -0.119,0.029c-0.034,0.02 -0.061,0.047 -0.081,0.082c-0.019,0.035 -0.029,0.076 -0.029,0.123c-0,0.047 0.01,0.088 0.029,0.123c0.019,0.036 0.045,0.063 0.078,0.083c0.033,0.02 0.071,0.03 0.113,0.03c0.044,0 0.082,-0.008 0.113,-0.024c0.031,-0.016 0.056,-0.04 0.072,-0.072c0.017,-0.032 0.025,-0.071 0.025,-0.116l0.088,0.061l-0.307,-0.003l0,-0.119l0.358,0l0,0.019c0,0.084 -0.015,0.154 -0.045,0.211c-0.03,0.056 -0.071,0.099 -0.124,0.127c-0.052,0.028 -0.113,0.043 -0.181,0.043Z" style="fill-rule:nonzero;"/>
  </g>
  <g transform="matrix(51.930067,0,0,51.930067,38.506145,42.233415)"></g>
  <g transform="matrix(53.206599,0,0,53.206599,35.203813,42.233415)">
    <path class="dot-path" d="M0.15,0.011c-0.026,0 -0.048,-0.009 -0.065,-0.027c-0.017,-0.018 -0.026,-0.04 -0.026,-0.065c0,-0.026 0.009,-0.048 0.026,-0.066c0.017,-0.018 0.039,-0.026 0.065,-0.026c0.026,0 0.048,0.009 0.065,0.026c0.017,0.018 0.026,0.04 0.025,0.066c0,0.026 -0.009,0.047 -0.025,0.065c-0.017,0.018 -0.039,0.027 -0.065,0.027Z" style="fill-rule:nonzero;"/>
  </g>
  <g transform="matrix(53.206599,0,0,53.206599,51.165793,42.233415)"></g>
</svg>